<svg version="1.1" xmlns="http://www.w3.org/2000/svg" xmlns:xlink="http://www.w3.org/1999/xlink" width="35" height="18"><defs/><g><path fill="rgb(255,104,55)" stroke="none" paint-order="stroke fill markers" fill-rule="evenodd" d=" M 3.0000076293945312 1.99973726272583 C 3.0000076293945312 1.99973726272583 32.99995040893555 1.99973726272583 32.99995040893555 1.99973726272583 C 33.552242279052734 1.99973726272583 33.99997329711914 2.4474962949752808 33.99997329711914 2.9997869729995728 C 33.99997329711914 2.9997869729995728 33.99997329711914 3.9998366832733154 33.99997329711914 3.9998366832733154 C 33.99997329711914 4.552127361297607 33.552242279052734 4.999886393547058 32.99995040893555 4.999886393547058 C 32.99995040893555 4.999886393547058 3.0000076293945312 4.999886393547058 3.0000076293945312 4.999886393547058 C 2.4477157592773438 4.999886393547058 1.9999847412109375 4.552127361297607 1.9999847412109375 3.9998366832733154 C 1.9999847412109375 3.9998366832733154 1.9999847412109375 2.9997869729995728 1.9999847412109375 2.9997869729995728 C 1.9999847412109375 2.4474962949752808 2.4477157592773438 1.99973726272583 3.0000076293945312 1.99973726272583 Z M 2.9999122619628906 7.999853730201721 C 2.9999122619628906 7.999853730201721 33.00004577636719 7.999853730201721 33.00004577636719 7.999853730201721 C 33.55228042602539 7.999853730201721 33.99997329711914 8.447612762451172 33.99997329711914 8.999903440475464 C 33.99997329711914 8.999903440475464 33.99997329711914 9.999953150749207 33.99997329711914 9.999953150749207 C 33.99997329711914 10.552062034606934 33.55228042602539 10.999821066856384 33.00004577636719 10.999821066856384 C 33.00004577636719 10.999821066856384 2.9999122619628906 10.999821066856384 2.9999122619628906 10.999821066856384 C 2.4476776123046875 10.999821066856384 1.9999847412109375 10.552062034606934 1.9999847412109375 9.999953150749207 C 1.9999847412109375 9.999953150749207 1.9999847412109375 8.999903440475464 1.9999847412109375 8.999903440475464 C 1.9999847412109375 8.447612762451172 2.4476776123046875 7.999853730201721 2.9999122619628906 7.999853730201721 Z M 3.0000076293945312 13.999788403511047 C 3.0000076293945312 13.999788403511047 32.99995040893555 13.999788403511047 32.99995040893555 13.999788403511047 C 33.552242279052734 13.999788403511047 33.99997329711914 14.447547435760498 33.99997329711914 14.99983811378479 C 33.99997329711914 14.99983811378479 33.99997329711914 15.999887824058533 33.99997329711914 15.999887824058533 C 33.99997329711914 16.552178502082825 33.552242279052734 16.999937534332275 32.99995040893555 16.999937534332275 C 32.99995040893555 16.999937534332275 3.0000076293945312 16.999937534332275 3.0000076293945312 16.999937534332275 C 2.4477157592773438 16.999937534332275 1.9999847412109375 16.552178502082825 1.9999847412109375 15.999887824058533 C 1.9999847412109375 15.999887824058533 1.9999847412109375 14.99983811378479 1.9999847412109375 14.99983811378479 C 1.9999847412109375 14.447547435760498 2.4477157592773438 13.999788403511047 3.0000076293945312 13.999788403511047 Z"/></g></svg>