<svg version="1.1" xmlns="http://www.w3.org/2000/svg" xmlns:xlink="http://www.w3.org/1999/xlink" width="19" height="48"><defs/><g><path fill="rgb(255,88,22)" stroke="none" paint-order="stroke fill markers" fill-rule="evenodd" d=" M 4.390113830566406 1.9999771118164062 C 4.390113830566406 1.9999771118164062 1.000030517578125 4.056156158447266 1.000030517578125 4.056156158447266 C 1.000030517578125 4.056156158447266 10.457427978515625 25.027840614318848 10.457427978515625 25.027840614318848 C 10.457427978515625 25.027840614318848 17.000015258789062 23.77867031097412 17.000015258789062 23.77867031097412 C 17.000015258789062 23.77867031097412 4.390113830566406 1.9999771118164062 4.390113830566406 1.9999771118164062 C 4.390113830566406 1.9999771118164062 4.390113830566406 1.9999771118164062 4.390113830566406 1.9999771118164062 M 4.390113830566406 46.00016403198242 C 4.390113830566406 46.00016403198242 1.000030517578125 43.94398498535156 1.000030517578125 43.94398498535156 C 1.000030517578125 43.94398498535156 10.457427978515625 22.971981048583984 10.457427978515625 22.971981048583984 C 10.457427978515625 22.971981048583984 17.000015258789062 24.221470832824707 17.000015258789062 24.221470832824707 C 17.000015258789062 24.221470832824707 4.390113830566406 46.00016403198242 4.390113830566406 46.00016403198242 C 4.390113830566406 46.00016403198242 4.390113830566406 46.00016403198242 4.390113830566406 46.00016403198242"/></g></svg>